../results/experiments/subject02/walk3/expdata/ground_reaction.mot
version=1
nRows=33
nColumns=19
inDegrees=no
endheader
time	ground_force_r_vx	ground_force_r_vy	ground_force_r_vz	ground_force_r_px	ground_force_r_py	ground_force_r_pz	ground_force_l_vx	ground_force_l_vy	ground_force_l_vz	ground_force_l_px	ground_force_l_py	ground_force_l_pz	ground_torque_r_x	ground_torque_r_y	ground_torque_r_z	ground_torque_l_x	ground_torque_l_y	ground_torque_l_z
0.025000	-17.984709	527.538208	-22.251972	0.928202	0.000000	-0.408299	0.021363	-0.035875	-0.022629	0.000000	0.000000	0.000000	-0.000000	7.589999	-0.000000	0.000000	0.000000	0.000000
0.026042	-17.388620	528.693298	-22.005938	0.927519	0.000000	-0.408438	0.007746	-0.012993	-0.008189	0.000000	0.000000	0.000000	-0.000000	7.297357	-0.000000	0.000000	0.000000	0.000000
0.027083	-16.775835	529.882751	-21.758692	0.926808	0.000000	-0.408578	-0.005609	0.009452	0.005976	0.000000	0.000000	0.000000	-0.000000	7.001975	-0.000000	0.000000	0.000000	0.000000
0.028125	-16.150255	531.099915	-21.513987	0.926069	0.000000	-0.408716	-0.018370	0.030900	0.019512	0.000000	0.000000	0.000000	-0.000000	6.705289	-0.000000	0.000000	0.000000	0.000000
0.029167	-15.515224	532.338928	-21.275425	0.925300	0.000000	-0.408853	-0.030236	0.050847	0.032103	0.000000	0.000000	0.000000	-0.000000	6.408745	-0.000000	0.000000	0.000000	0.000000
0.030208	-14.873646	533.595154	-21.046450	0.924501	0.000000	-0.408989	-0.040954	0.068867	0.043478	0.000000	0.000000	0.000000	-0.000000	6.113780	-0.000000	0.000000	0.000000	0.000000
0.031250	-14.228065	534.864258	-20.830315	0.923672	0.000000	-0.409122	-0.050323	0.084626	0.053429	0.000000	0.000000	0.000000	-0.000000	5.821814	-0.000000	0.000000	0.000000	0.000000
0.032292	-13.580689	536.142822	-20.630045	0.922811	0.000000	-0.409252	-0.058206	0.097892	0.061809	0.000000	0.000000	0.000000	-0.000000	5.534227	-0.000000	0.000000	0.000000	0.000000
0.033333	-12.933421	537.427856	-20.448387	0.921918	0.000000	-0.409378	-0.064524	0.108536	0.068537	0.000000	0.000000	0.000000	-0.000000	5.252353	-0.000000	0.000000	0.000000	0.000000
0.034375	-12.287866	538.716858	-20.287767	0.920993	0.000000	-0.409501	-0.069261	0.116531	0.073596	0.000000	0.000000	0.000000	-0.000000	4.977464	-0.000000	0.000000	0.000000	0.000000
0.035417	-11.645360	540.007996	-20.150240	0.920035	0.000000	-0.409620	-0.072453	0.121939	0.077026	0.000000	0.000000	0.000000	-0.000000	4.710757	-0.000000	0.000000	0.000000	0.000000
0.036458	-11.006987	541.299805	-20.037447	0.919045	0.000000	-0.409733	-0.074184	0.124903	0.078920	0.000000	0.000000	0.000000	-0.000000	4.453348	-0.000000	0.000000	0.000000	0.000000
0.037500	-10.373600	542.591187	-19.950581	0.918022	0.000000	-0.409842	-0.074577	0.125633	0.079410	0.000000	0.000000	0.000000	-0.000000	4.206258	-0.000000	0.000000	0.000000	0.000000
0.038542	-9.745852	543.881470	-19.890352	0.916966	0.000000	-0.409945	-0.073781	0.124384	0.078658	0.000000	0.000000	0.000000	-0.000000	3.970407	-0.000000	0.000000	0.000000	0.000000
0.039583	-9.124209	545.170349	-19.856974	0.915878	0.000000	-0.410042	-0.071967	0.121445	0.076849	0.000000	0.000000	0.000000	-0.000000	3.746611	-0.000000	0.000000	0.000000	0.000000
0.040625	-8.508976	546.457642	-19.850143	0.914758	0.000000	-0.410134	-0.069314	0.117121	0.074177	0.000000	0.000000	0.000000	-0.000000	3.535570	-0.000000	0.000000	0.000000	0.000000
0.041667	-7.900307	547.743469	-19.869053	0.913606	0.000000	-0.410218	-0.066001	0.111721	0.070839	0.000000	0.000000	0.000000	-0.000000	3.337872	-0.000000	0.000000	0.000000	0.000000
0.042708	-7.298218	549.028076	-19.912405	0.912423	0.000000	-0.410296	-0.062205	0.105546	0.067028	0.000000	0.000000	0.000000	-0.000000	3.153987	-0.000000	0.000000	0.000000	0.000000
0.043750	-6.702598	550.311951	-19.978434	0.911209	0.000000	-0.410367	-0.058090	0.098879	0.062926	0.000000	0.000000	0.000000	-0.000000	2.984266	-0.000000	0.000000	0.000000	0.000000
0.044792	-6.113209	551.595520	-20.064959	0.909965	0.000000	-0.410431	-0.053805	0.091983	0.058703	0.000000	0.000000	0.000000	-0.000000	2.828942	-0.000000	0.000000	0.000000	0.000000
0.045833	-5.529697	552.879395	-20.169437	0.908693	0.000000	-0.410487	-0.049483	0.085091	0.054511	0.000000	0.000000	0.000000	-0.000000	2.688135	-0.000000	0.000000	0.000000	0.000000
0.046875	-4.951587	554.164307	-20.289034	0.907393	0.000000	-0.410536	-0.045241	0.078410	0.050487	0.000000	0.000000	0.000000	-0.000000	2.561852	-0.000000	0.000000	0.000000	0.000000
0.047917	-4.378291	555.450928	-20.420698	0.906065	0.000000	-0.410577	-0.041175	0.072117	0.046748	0.000000	0.000000	0.000000	-0.000000	2.449990	-0.000000	0.000000	0.000000	0.000000
0.048958	-3.809099	556.739990	-20.561258	0.904713	0.000000	-0.410611	-0.037366	0.066364	0.043398	0.000000	0.000000	0.000000	-0.000000	2.352347	-0.000000	0.000000	0.000000	0.000000
0.050000	-3.243189	558.032166	-20.707510	0.903336	0.000000	-0.410637	-0.033878	0.061280	0.040527	0.000000	0.000000	0.000000	-0.000000	2.268622	-0.000000	0.000000	0.000000	0.000000
0.051042	-2.679615	559.328125	-20.856323	0.901936	0.000000	-0.410655	-0.030763	0.056970	0.038213	0.000000	0.000000	0.000000	-0.000000	2.198425	-0.000000	0.000000	0.000000	0.000000
0.052083	-2.117312	560.628540	-21.004730	0.900514	0.000000	-0.410666	-0.028061	0.053528	0.036525	0.000000	0.000000	0.000000	-0.000000	2.141284	-0.000000	0.000000	0.000000	0.000000
0.053125	-1.555092	561.933960	-21.150023	0.899073	0.000000	-0.410669	-0.025803	0.051033	0.035527	0.000000	0.000000	0.000000	-0.000000	2.096653	-0.000000	0.000000	0.000000	0.000000
0.054167	-0.991639	563.244690	-21.289846	0.897613	0.000000	-0.410665	-0.024015	0.049556	0.035279	0.000000	0.000000	0.000000	-0.000000	2.063922	-0.000000	0.000000	0.000000	0.000000
0.055208	-0.425522	564.561157	-21.422266	0.896136	0.000000	-0.410653	-0.022717	0.049163	0.035839	0.000000	0.000000	0.000000	-0.000000	2.042422	-0.000000	0.000000	0.000000	0.000000
0.056250	0.144810	565.883484	-21.545826	0.894643	0.000000	-0.410634	-0.021929	0.049919	0.037267	0.000000	0.000000	0.000000	-0.000000	2.031438	-0.000000	0.000000	0.000000	0.000000
0.057292	0.721005	567.211792	-21.659601	0.893137	0.000000	-0.410607	-0.021668	0.051891	0.039623	0.000000	0.000000	0.000000	-0.000000	2.030216	-0.000000	0.000000	0.000000	0.000000
0.058333	1.304788	568.545898	-21.763220	0.891619	0.000000	-0.410574	-0.021954	0.055146	0.042973	0.000000	0.000000	0.000000	-0.000000	2.037971	-0.000000	0.000000	0.000000	0.000000
